<mxfile host="app.diagrams.net" modified="2023-10-16T01:39:43.027Z" agent="Mozilla/5.0 (Windows NT 10.0; Win64; x64; rv:109.0) Gecko/20100101 Firefox/118.0" etag="UKGoGbWu79u3PUy1Vx4s" version="22.0.4" type="github">
  <diagram id="C5RBs43oDa-KdzZeNtuy" name="Page-1">
    <mxGraphModel dx="880" dy="470" grid="1" gridSize="10" guides="1" tooltips="1" connect="1" arrows="1" fold="1" page="1" pageScale="1" pageWidth="827" pageHeight="1169" math="0" shadow="0">
      <root>
        <mxCell id="WIyWlLk6GJQsqaUBKTNV-0" />
        <mxCell id="WIyWlLk6GJQsqaUBKTNV-1" parent="WIyWlLk6GJQsqaUBKTNV-0" />
        <mxCell id="CJoUWD1lAauQm7edvPwS-4" style="edgeStyle=orthogonalEdgeStyle;rounded=0;orthogonalLoop=1;jettySize=auto;html=1;exitX=0.5;exitY=1;exitDx=0;exitDy=0;exitPerimeter=0;entryX=0.5;entryY=0;entryDx=0;entryDy=0;" edge="1" parent="WIyWlLk6GJQsqaUBKTNV-1" source="CJoUWD1lAauQm7edvPwS-0" target="CJoUWD1lAauQm7edvPwS-1">
          <mxGeometry relative="1" as="geometry" />
        </mxCell>
        <mxCell id="CJoUWD1lAauQm7edvPwS-0" value="Milai" style="strokeWidth=2;html=1;shape=mxgraph.flowchart.start_1;whiteSpace=wrap;" vertex="1" parent="WIyWlLk6GJQsqaUBKTNV-1">
          <mxGeometry x="364" y="50" width="100" height="60" as="geometry" />
        </mxCell>
        <mxCell id="CJoUWD1lAauQm7edvPwS-6" value="" style="edgeStyle=orthogonalEdgeStyle;rounded=0;orthogonalLoop=1;jettySize=auto;html=1;" edge="1" parent="WIyWlLk6GJQsqaUBKTNV-1" source="CJoUWD1lAauQm7edvPwS-1" target="CJoUWD1lAauQm7edvPwS-5">
          <mxGeometry relative="1" as="geometry" />
        </mxCell>
        <mxCell id="CJoUWD1lAauQm7edvPwS-1" value="Integer bil" style="shape=internalStorage;whiteSpace=wrap;html=1;dx=15;dy=15;rounded=1;arcSize=8;strokeWidth=2;" vertex="1" parent="WIyWlLk6GJQsqaUBKTNV-1">
          <mxGeometry x="351" y="150" width="126" height="70" as="geometry" />
        </mxCell>
        <mxCell id="CJoUWD1lAauQm7edvPwS-5" value="Input bil" style="shape=parallelogram;perimeter=parallelogramPerimeter;whiteSpace=wrap;html=1;fixedSize=1;rounded=1;arcSize=8;strokeWidth=2;" vertex="1" parent="WIyWlLk6GJQsqaUBKTNV-1">
          <mxGeometry x="354" y="290" width="120" height="60" as="geometry" />
        </mxCell>
        <mxCell id="CJoUWD1lAauQm7edvPwS-13" value="Tidak" style="edgeStyle=orthogonalEdgeStyle;rounded=0;orthogonalLoop=1;jettySize=auto;html=1;exitX=0;exitY=0.5;exitDx=0;exitDy=0;exitPerimeter=0;entryX=0.5;entryY=0;entryDx=0;entryDy=0;" edge="1" parent="WIyWlLk6GJQsqaUBKTNV-1" source="CJoUWD1lAauQm7edvPwS-8" target="CJoUWD1lAauQm7edvPwS-11">
          <mxGeometry relative="1" as="geometry" />
        </mxCell>
        <mxCell id="CJoUWD1lAauQm7edvPwS-8" value="Bil mod = 0" style="strokeWidth=2;html=1;shape=mxgraph.flowchart.decision;whiteSpace=wrap;" vertex="1" parent="WIyWlLk6GJQsqaUBKTNV-1">
          <mxGeometry x="364" y="400" width="100" height="100" as="geometry" />
        </mxCell>
        <mxCell id="CJoUWD1lAauQm7edvPwS-9" style="edgeStyle=orthogonalEdgeStyle;rounded=0;orthogonalLoop=1;jettySize=auto;html=1;exitX=0.5;exitY=1;exitDx=0;exitDy=0;entryX=0.5;entryY=0;entryDx=0;entryDy=0;entryPerimeter=0;" edge="1" parent="WIyWlLk6GJQsqaUBKTNV-1" source="CJoUWD1lAauQm7edvPwS-5" target="CJoUWD1lAauQm7edvPwS-8">
          <mxGeometry relative="1" as="geometry" />
        </mxCell>
        <mxCell id="CJoUWD1lAauQm7edvPwS-10" value="Output bilangan genap" style="shape=parallelogram;html=1;strokeWidth=2;perimeter=parallelogramPerimeter;whiteSpace=wrap;rounded=1;arcSize=12;size=0.23;" vertex="1" parent="WIyWlLk6GJQsqaUBKTNV-1">
          <mxGeometry x="500" y="500" width="180" height="50" as="geometry" />
        </mxCell>
        <mxCell id="CJoUWD1lAauQm7edvPwS-11" value="Output bialangan ganjil" style="shape=parallelogram;html=1;strokeWidth=2;perimeter=parallelogramPerimeter;whiteSpace=wrap;rounded=1;arcSize=12;size=0.21749999999999997;direction=east;" vertex="1" parent="WIyWlLk6GJQsqaUBKTNV-1">
          <mxGeometry x="100" y="510" width="180" height="50" as="geometry" />
        </mxCell>
        <mxCell id="CJoUWD1lAauQm7edvPwS-12" value="Ya" style="edgeStyle=orthogonalEdgeStyle;rounded=0;orthogonalLoop=1;jettySize=auto;html=1;exitX=1;exitY=0.5;exitDx=0;exitDy=0;exitPerimeter=0;entryX=0.59;entryY=0;entryDx=0;entryDy=0;entryPerimeter=0;" edge="1" parent="WIyWlLk6GJQsqaUBKTNV-1" source="CJoUWD1lAauQm7edvPwS-8" target="CJoUWD1lAauQm7edvPwS-10">
          <mxGeometry relative="1" as="geometry" />
        </mxCell>
        <mxCell id="CJoUWD1lAauQm7edvPwS-14" value="" style="strokeWidth=2;html=1;shape=mxgraph.flowchart.start_2;whiteSpace=wrap;" vertex="1" parent="WIyWlLk6GJQsqaUBKTNV-1">
          <mxGeometry x="401" y="620" width="26" height="20" as="geometry" />
        </mxCell>
        <mxCell id="CJoUWD1lAauQm7edvPwS-16" style="edgeStyle=orthogonalEdgeStyle;rounded=0;orthogonalLoop=1;jettySize=auto;html=1;exitX=0.5;exitY=1;exitDx=0;exitDy=0;entryX=1;entryY=0.5;entryDx=0;entryDy=0;entryPerimeter=0;" edge="1" parent="WIyWlLk6GJQsqaUBKTNV-1" source="CJoUWD1lAauQm7edvPwS-10" target="CJoUWD1lAauQm7edvPwS-14">
          <mxGeometry relative="1" as="geometry" />
        </mxCell>
        <mxCell id="CJoUWD1lAauQm7edvPwS-17" style="edgeStyle=orthogonalEdgeStyle;rounded=0;orthogonalLoop=1;jettySize=auto;html=1;exitX=0.5;exitY=1;exitDx=0;exitDy=0;entryX=0;entryY=0.5;entryDx=0;entryDy=0;entryPerimeter=0;" edge="1" parent="WIyWlLk6GJQsqaUBKTNV-1" source="CJoUWD1lAauQm7edvPwS-11" target="CJoUWD1lAauQm7edvPwS-14">
          <mxGeometry relative="1" as="geometry" />
        </mxCell>
        <mxCell id="CJoUWD1lAauQm7edvPwS-19" value="Selesai" style="strokeWidth=2;html=1;shape=mxgraph.flowchart.start_1;whiteSpace=wrap;" vertex="1" parent="WIyWlLk6GJQsqaUBKTNV-1">
          <mxGeometry x="364" y="690" width="100" height="60" as="geometry" />
        </mxCell>
        <mxCell id="CJoUWD1lAauQm7edvPwS-20" style="edgeStyle=orthogonalEdgeStyle;rounded=0;orthogonalLoop=1;jettySize=auto;html=1;exitX=0.5;exitY=1;exitDx=0;exitDy=0;exitPerimeter=0;entryX=0.5;entryY=0;entryDx=0;entryDy=0;entryPerimeter=0;" edge="1" parent="WIyWlLk6GJQsqaUBKTNV-1" source="CJoUWD1lAauQm7edvPwS-14" target="CJoUWD1lAauQm7edvPwS-19">
          <mxGeometry relative="1" as="geometry" />
        </mxCell>
      </root>
    </mxGraphModel>
  </diagram>
</mxfile>
